#tb 0: 1/25
#media_type 0: video
#codec_id 0: rawvideo
#dimensions 0: 352x256
#sar 0: 1/1
0,          0,          0,        1,   270336, 0x4b4e7793
0,          1,          1,        1,   270336, 0xb7267791
0,          2,          2,        1,   270336, 0x34d87793
0,          3,          3,        1,   270336, 0x49c77795
0,          4,          4,        1,   270336, 0xfcc27793
0,          5,          5,        1,   270336, 0x5e2a7793
0,          6,          6,        1,   270336, 0x7ec07795
0,          7,          7,        1,   270336, 0x12b07795
0,          8,          8,        1,   270336, 0x56387795
0,          9,          9,        1,   270336, 0xb41e777f
0,         10,         10,        1,   270336, 0xa9207795
0,         11,         11,        1,   270336, 0x889e7793
0,         12,         12,        1,   270336, 0xcf0c7795
0,         13,         13,        1,   270336, 0xbe317793
0,         14,         14,        1,   270336, 0xf5817793
0,         15,         15,        1,   270336, 0xaded7795
0,         16,         16,        1,   270336, 0x890f7793
0,         17,         17,        1,   270336, 0x298b7795
0,         18,         18,        1,   270336, 0x921c7793
0,         19,         19,        1,   270336, 0x62937795
0,         20,         20,        1,   270336, 0x80d37795
0,         21,         21,        1,   270336, 0x42367793
0,         22,         22,        1,   270336, 0x1acf7793
0,         23,         23,        1,   270336, 0xd31e7793
0,         24,         24,        1,   270336, 0x2fef7795
0,         25,         25,        1,   270336, 0x76967793
0,         26,         26,        1,   270336, 0x87867795
0,         27,         27,        1,   270336, 0x8dbd7787
0,         28,         28,        1,   270336, 0x80bc7775
0,         29,         29,        1,   270336, 0x7b717795
0,         30,         30,        1,   270336, 0x73ef7791
0,         31,         31,        1,   270336, 0x4ac97795
0,         32,         32,        1,   270336, 0x13e87787
0,         33,         33,        1,   270336, 0x7fd77795
0,         34,         34,        1,   270336, 0xa9e67795
0,         35,         35,        1,   270336, 0x2ced7795
0,         36,         36,        1,   270336, 0xb33e7795
0,         37,         37,        1,   270336, 0x6c8e7795
0,         38,         38,        1,   270336, 0xa6be7795
0,         39,         39,        1,   270336, 0x3f9b7795
0,         40,         40,        1,   270336, 0x01917793
0,         41,         41,        1,   270336, 0x51a17795
0,         42,         42,        1,   270336, 0x48507795
0,         43,         43,        1,   270336, 0x4a357795
0,         44,         44,        1,   270336, 0xb60a7795
0,         45,         45,        1,   270336, 0x3ceb7795
0,         46,         46,        1,   270336, 0x1f447795
0,         47,         47,        1,   270336, 0xe30b7795
0,         48,         48,        1,   270336, 0xdeb47789
0,         49,         49,        1,   270336, 0x64437795
